HIERARCHY
ROOT Hips
{
	OFFSET -14.64140 90.27770 -84.91600
	CHANNELS 6 Xposition Yposition Zposition Zrotation Xrotation Yrotation
	JOINT Spine
	{
		OFFSET 0.00000 13.20850 -1.60436
		CHANNELS 3 Zrotation Xrotation Yrotation
		JOINT Spine1
		{
			OFFSET 0.00000 8.61716 0.00000
			CHANNELS 3 Zrotation Xrotation Yrotation
			JOINT Spine2
			{
				OFFSET 0.00000 8.61717 0.00000
				CHANNELS 3 Zrotation Xrotation Yrotation
				JOINT Spine3
				{
					OFFSET 0.00000 8.61717 0.00000
					CHANNELS 3 Zrotation Xrotation Yrotation
					JOINT Neck
					{
						OFFSET 0.00000 11.07920 1.10792
						CHANNELS 3 Zrotation Xrotation Yrotation
						JOINT Neck1
						{
							OFFSET 0.00000 7.08032 0.00000
							CHANNELS 3 Zrotation Xrotation Yrotation
							JOINT Head
							{
								OFFSET 0.00000 7.08031 0.00000
								CHANNELS 3 Zrotation Xrotation Yrotation
								End site
								{
									OFFSET 0.00000 0.00000 0.00000
								}
							}
						}
					}
					JOINT RightShoulder
					{
						OFFSET -0.01000 7.91373 5.19711
						CHANNELS 3 Zrotation Xrotation Yrotation
						JOINT RightArm
						{
							OFFSET -18.41580 0.00000 0.00000
							CHANNELS 3 Zrotation Xrotation Yrotation
							JOINT RightForeArm
							{
								OFFSET -29.11090 0.00000 0.00000
								CHANNELS 3 Zrotation Xrotation Yrotation
								JOINT RightHand
								{
									OFFSET -24.65040 0.00000 0.00000
									CHANNELS 3 Zrotation Xrotation Yrotation
									JOINT RightHandThumb1
									{
										OFFSET -5.35114 -0.85590 3.97906
										CHANNELS 3 Zrotation Xrotation Yrotation
										JOINT RightHandThumb2
										{
											OFFSET -4.52789 0.00000 0.00000
											CHANNELS 3 Zrotation Xrotation Yrotation
											JOINT RightHandThumb3
											{
												OFFSET -2.46976 0.00000 0.00000
												CHANNELS 3 Zrotation Xrotation Yrotation
												End site
												{
													OFFSET 0.00000 0.00000 0.00000
												}
											}
										}
									}
									JOINT RightHandIndex1
									{
										OFFSET -14.26970 0.00000 2.88139
										CHANNELS 3 Zrotation Xrotation Yrotation
										JOINT RightHandIndex2
										{
											OFFSET -5.48836 0.00000 0.00000
											CHANNELS 3 Zrotation Xrotation Yrotation
											JOINT RightHandIndex3
											{
												OFFSET -3.01859 0.00000 0.00000
												CHANNELS 3 Zrotation Xrotation Yrotation
												End site
												{
													OFFSET 0.00000 0.00000 0.00000
												}
											}
										}
									}
									JOINT RightHandMiddle1
									{
										OFFSET -14.26970 0.00000 -0.09147
										CHANNELS 3 Zrotation Xrotation Yrotation
										JOINT RightHandMiddle2
										{
											OFFSET -6.17441 0.00000 0.00000
											CHANNELS 3 Zrotation Xrotation Yrotation
											JOINT RightHandMiddle3
											{
												OFFSET -3.56743 0.00000 0.00000
												CHANNELS 3 Zrotation Xrotation Yrotation
												End site
												{
													OFFSET 0.00000 0.00000 0.00000
												}
											}
										}
									}
									JOINT RightHandRing1
									{
										OFFSET -12.69180 0.00000 -3.06433
										CHANNELS 3 Zrotation Xrotation Yrotation
										JOINT RightHandRing2
										{
											OFFSET -5.62556 0.00000 0.00000
											CHANNELS 3 Zrotation Xrotation Yrotation
											JOINT RightHandRing3
											{
												OFFSET -3.56744 0.00000 0.00000
												CHANNELS 3 Zrotation Xrotation Yrotation
												End site
												{
													OFFSET 0.00000 0.00000 0.00000
												}
											}
										}
									}
									JOINT RightHandPinky1
									{
										OFFSET -11.11390 0.00000 -6.03719
										CHANNELS 3 Zrotation Xrotation Yrotation
										JOINT RightHandPinky2
										{
											OFFSET -4.52789 0.00000 0.00000
											CHANNELS 3 Zrotation Xrotation Yrotation
											JOINT RightHandPinky3
											{
												OFFSET -2.46976 0.00000 0.00000
												CHANNELS 3 Zrotation Xrotation Yrotation
												End site
												{
													OFFSET 0.00000 0.00000 0.00000
												}
											}
										}
									}
								}
							}
						}
					}
					JOINT LeftShoulder
					{
						OFFSET 0.01000 7.91373 5.19711
						CHANNELS 3 Zrotation Xrotation Yrotation
						JOINT LeftArm
						{
							OFFSET 18.41580 0.00000 0.00000
							CHANNELS 3 Zrotation Xrotation Yrotation
							JOINT LeftForeArm
							{
								OFFSET 29.11090 0.00000 0.00000
								CHANNELS 3 Zrotation Xrotation Yrotation
								JOINT LeftHand
								{
									OFFSET 24.65040 0.00000 0.00000
									CHANNELS 3 Zrotation Xrotation Yrotation
									JOINT LeftHandThumb1
									{
										OFFSET 5.35114 -0.85590 3.97906
										CHANNELS 3 Zrotation Xrotation Yrotation
										JOINT LeftHandThumb2
										{
											OFFSET 4.52789 0.00000 0.00000
											CHANNELS 3 Zrotation Xrotation Yrotation
											JOINT LeftHandThumb3
											{
												OFFSET 2.46977 0.00000 0.00000
												CHANNELS 3 Zrotation Xrotation Yrotation
												End site
												{
													OFFSET 0.00000 0.00000 0.00000
												}
											}
										}
									}
									JOINT LeftHandIndex1
									{
										OFFSET 14.26970 0.00000 2.88139
										CHANNELS 3 Zrotation Xrotation Yrotation
										JOINT LeftHandIndex2
										{
											OFFSET 5.48836 0.00000 0.00000
											CHANNELS 3 Zrotation Xrotation Yrotation
											JOINT LeftHandIndex3
											{
												OFFSET 3.01859 0.00000 0.00000
												CHANNELS 3 Zrotation Xrotation Yrotation
												End site
												{
													OFFSET 0.00000 0.00000 0.00000
												}
											}
										}
									}
									JOINT LeftHandMiddle1
									{
										OFFSET 14.26970 0.00000 -0.09147
										CHANNELS 3 Zrotation Xrotation Yrotation
										JOINT LeftHandMiddle2
										{
											OFFSET 6.17440 0.00000 0.00000
											CHANNELS 3 Zrotation Xrotation Yrotation
											JOINT LeftHandMiddle3
											{
												OFFSET 3.56744 0.00000 0.00000
												CHANNELS 3 Zrotation Xrotation Yrotation
												End site
												{
													OFFSET 0.00000 0.00000 0.00000
												}
											}
										}
									}
									JOINT LeftHandRing1
									{
										OFFSET 12.69180 0.00000 -3.06433
										CHANNELS 3 Zrotation Xrotation Yrotation
										JOINT LeftHandRing2
										{
											OFFSET 5.62556 0.00000 0.00000
											CHANNELS 3 Zrotation Xrotation Yrotation
											JOINT LeftHandRing3
											{
												OFFSET 3.56744 0.00000 0.00000
												CHANNELS 3 Zrotation Xrotation Yrotation
												End site
												{
													OFFSET 0.00000 0.00000 0.00000
												}
											}
										}
									}
									JOINT LeftHandPinky1
									{
										OFFSET 11.11390 0.00000 -6.03719
										CHANNELS 3 Zrotation Xrotation Yrotation
										JOINT LeftHandPinky2
										{
											OFFSET 4.52789 0.00000 0.00000
											CHANNELS 3 Zrotation Xrotation Yrotation
											JOINT LeftHandPinky3
											{
												OFFSET 2.46976 0.00000 0.00000
												CHANNELS 3 Zrotation Xrotation Yrotation
												End site
												{
													OFFSET 0.00000 0.00000 0.00000
												}
											}
										}
									}
								}
							}
						}
					}
					JOINT pCube4
					{
						OFFSET 0.00000 10.91090 1.10792
						CHANNELS 3 Zrotation Xrotation Yrotation
						End site
						{
							OFFSET 0.00000 0.00000 0.00000
						}
					}
				}
			}
		}
	}
	JOINT RightUpLeg
	{
		OFFSET -9.98441 0.00000 0.00000
		CHANNELS 3 Zrotation Xrotation Yrotation
		JOINT RightLeg
		{
			OFFSET 0.00000 -42.11790 0.00000
			CHANNELS 3 Zrotation Xrotation Yrotation
			JOINT RightFoot
			{
				OFFSET 0.00000 -45.00020 -0.00001
				CHANNELS 3 Zrotation Xrotation Yrotation
				JOINT RightForeFoot
				{
					OFFSET 0.00000 -3.74820 0.00000
					CHANNELS 3 Zrotation Xrotation Yrotation
					JOINT RightToeBase
					{
						OFFSET 0.00000 0.06325 14.43120
						CHANNELS 3 Zrotation Xrotation Yrotation
						End site
						{
							OFFSET 0.00000 0.00000 0.00000
						}
					}
				}
			}
		}
	}
	JOINT LeftUpLeg
	{
		OFFSET 9.98441 0.00000 0.00000
		CHANNELS 3 Zrotation Xrotation Yrotation
		JOINT LeftLeg
		{
			OFFSET 0.00000 -42.11800 0.00000
			CHANNELS 3 Zrotation Xrotation Yrotation
			JOINT LeftFoot
			{
				OFFSET 0.00000 -45.00070 0.00000
				CHANNELS 3 Zrotation Xrotation Yrotation
				JOINT LeftForeFoot
				{
					OFFSET 0.00000 -3.74824 0.00000
					CHANNELS 3 Zrotation Xrotation Yrotation
					JOINT LeftToeBase
					{
						OFFSET 0.00000 0.06325 14.43110
						CHANNELS 3 Zrotation Xrotation Yrotation
						End site
						{
							OFFSET 0.00000 0.00000 0.00000
						}
					}
				}
			}
		}
	}
}
MOTION
Frames: 4
Frame Time: 0.050000
-0.045054116505880204 0.023088867545866604 0.03023598986354438 0.007263901993563389 -0.03535192912267328 -0.04227575862944666 -3.188320540917106 0.4158500863264016 -0.7429263806925677 -1.1172725033985054 3.839375598800624 0.38752301677139267 -1.3570558126373777 -2.0586279827040115 -1.0302236107712717 -0.45697021914670605 0.5721116994226938 -0.794566269909239 -0.4884304805530339 13.34543569320795 2.4002545767939987 0.4588806075633125 0.20784102914418484 4.368464402850514 -0.12325078445826862 -14.738197212535475 0.39135526298415024 -4.932459174142393 1.7707594955010835 -15.265213629200495 73.36104482562682 19.8664832317152 -0.9845754684762279 2.7807857427852305 2.4400370108376235 42.067350160989434 23.27584883501489 -0.18394750671281312 -4.186007783563651 4.552719247405812 -0.08097258656863987 -1.6192401623960404 -0.012147463127729859 0.04730389567628702 -56.24690608225575 -0.0006151730045504212 -0.016274858417608756 -56.26644438054236 -38.78411647464237 -0.002937857618772709 -0.038099074031862586 0.025632230024267094 -0.025618231688492137 0.029738715301307464 -0.044670969381306706 0.039161314428493715 0.042680648972491714 -36.690440867669246 0.039545497441519604 0.018332591818607306 -0.030614292191568696 -0.025819788048652263 -0.006549887261257327 0.03987685898117842 -0.03045119613584728 -0.026368792446635023 -19.750024002814012 0.011988732303385999 0.027427340607023103 0.04145079562606942 0.04766775601810868 -0.047124378169231616 0.0139127067835035 0.004852314060996794 0.035548987089055635 24.06702894774856 0.0058515091712456144 -0.020658337101218827 28.82274660056358 0.009570957036957881 0.03506887246573382 28.885864959036038 -0.022546408754833904 0.0386589247362876 6.243733804961958 1.3826988447722994 13.840066884895558 -72.52806009723462 25.39151422348938 -4.09638855286817 -0.704004053454707 -11.209310835410145 -42.456359386159434 -9.413286782989667 -0.2807440278665334 3.075741258688076 -0.49449367045215004 0.04221591442893327 -8.080662332650009 -0.016169498516839947 0.006376712724220995 44.5944237360394 0.040818217057456196 0.00018426743566935772 44.540896255374165 12.484200481180867 -0.010800225877237677 0.04306987133857015 -0.03748990865083785 0.011711033264402903 -0.008823303260521564 -0.02928211902038066 -0.019209635263819427 -0.009451927379727354 11.142988477023508 -0.002122676361167458 -0.01722882441324744 -0.03844418698839536 0.02884117023060125 0.03579390526652496 -0.038852239484655146 0.009090805886415337 -0.02515233237999407 4.806415160402469 0.030383417321940144 -0.011003771790569456 0.041774532180079545 0.00759643276460752 -0.02453614825482518 0.028201833870413275 0.04226369561827359 0.03752724463640917 -5.574807401989225 -0.0381325499809282 -0.012834602635302462 -6.678302309720119 0.042350905059960246 0.014686067066316354 -6.693130361685384 -0.01969956886367931 -0.016009464607654355 -0.03924774218656578 -0.004645028466474107 0.013608706614119307 8.051566417537131 3.453918274852628 -19.17293614284851 0.03642153739193019 10.353993665390874 0.050441753305265 -5.646345032319768 -15.655544954420957 3.2044417882271885 0.038394137456173094 -0.015883770894254808 -0.021075957039452003 0.022228319352237454 4.6966728673384095 -0.016695174419509237 12.47415041008772 -8.288389812690877 6.836183693076104 0.0010802268461544808 46.417571436698545 -0.03000887693454876 -4.352755150415886 -14.775464137083748 -3.8211218607862687 -0.03204282549384806 -0.007450743552989102 -0.014910022061264813 -0.014337743427263657 -10.769180068566842 -0.008541190137773765 
-0.005795568842297568 -0.013319099708476124 -0.007734226115561036 -0.04215495947946266 -0.0009984550200683744 -0.025377684210189624 -3.137716239631017 0.524727748706 -0.7611040175031822 -1.164750518367112 3.8769485699354673 0.41141836634814255 -1.287342354649755 -2.110800771078171 -1.0963800676301376 -0.43581584223777975 0.49124327070135054 -0.7559089493758421 -0.5898025151787488 13.4633491561275 2.43399579219118 0.3853508966250393 0.17909420615965216 4.6955139512345765 -0.13997429956195032 -14.756698604704974 0.3261953639644337 -5.112839479498309 1.856769820197622 -15.16667835813058 72.68380516218791 20.050822717048934 -0.45409815168827583 2.4949498877694074 1.9416955395839681 42.80179124809503 22.927912239070853 -0.13805241807480728 -4.257035770058853 4.564411038540208 -0.10606242193345672 -1.5475078002677929 -0.010912819971213369 0.014772795111955317 -56.187508361512684 -0.016595521007081324 0.04593807779437666 -56.23112074606126 -38.79566137997196 0.01768947677438387 0.008176288432071202 0.03591154370017188 0.009106429676696452 0.007345877398493374 -0.012900492322018743 0.02028297255636998 -0.013223496286640872 -36.71345394789767 0.04825018037553235 -0.02702669425274324 0.008967103906106604 0.034975660144266695 -0.03352852280242723 0.004079092973667415 0.02103547541478722 0.030360717880739657 -19.717980701305148 0.043335258049593706 -0.010626573314740852 -0.035660607568073016 -0.032204355565401604 0.026513017620255604 -0.04066298525227726 0.023824802494183905 -0.015211273729089977 24.086073477773287 0.04167049044253576 -0.02284212148467736 28.83189941239377 -0.004296041113020342 0.0022545230284681515 28.828579719015774 -0.03724912017466147 -0.028483540367976627 6.653713631818474 1.4938352001145154 13.798660568797871 -72.10745261426577 24.209106685750992 -5.672208314561948 -0.47271052083252807 -11.710255866941838 -43.37899820882704 -8.455473108767853 0.10093823947154963 2.8204833355895977 -0.44033488815654337 0.06918817718508787 -8.154043342809036 -0.009024841043891351 0.045489628398663336 44.52121365934826 0.042428723371983466 -0.0427453822789761 44.5542148763581 12.484472194776163 0.014659115691565324 0.021115919904073212 -0.046150741046338324 -0.020568017094427984 -0.02236936695650611 -0.008353282745093532 -0.04580239826329237 0.0354964797720196 11.138283008994069 -0.03231942782188586 -0.02962521589816125 0.013632391173419817 0.014091895655907193 -0.014377230418896545 -0.03619531298197814 -0.04401352634842415 0.014646559690418488 4.742851862625566 -0.04569883805592839 0.013267923892701563 -0.03941847726568073 -0.0395899405503027 0.015871646608080037 -0.00017619593656085456 0.00019039765768007818 -0.0469456152229598 -5.592810440351637 0.04075382810358091 -0.012648867485476688 -6.763674379159285 -0.009155870055914115 -0.034830219947434946 -6.697480038869 -0.022360218231450065 0.020456805406979528 -0.0028345307891803387 -0.026268905404566202 -0.012705766999726711 8.08839225087784 3.5392975894248497 -19.203211291390723 -0.03472694699277111 10.350938426850677 -0.024754033590467576 -5.578115525613424 -15.63373011628189 3.159474329309109 -0.018197299309185188 -0.022164565510199418 -0.016017723756962164 -0.0016519447754122644 4.713176577361686 -0.027087355021236107 12.427859725480234 -8.247210528508214 6.911806312208884 -0.009179638160895433 46.374665794547155 0.013587098687497409 -4.361883874310987 -14.71836630394933 -3.861488934154779 0.035057064126528474 0.006859782013488508 -0.012870337879233465 0.0322578236750884 -10.726075057937736 0.0180395897634554 
-0.014249490752836417 0.0297807991421025 -1.9395076288107253e-05 0.006831229663525982 0.037664257159247316 -0.039070315453464566 -3.160836903180622 0.6202354756080094 -0.7238374880945901 -1.2013173648461832 3.8454555825651124 0.4338182922165549 -1.2745491757684348 -2.1671314996996256 -1.2663760070130208 -0.47101579494735346 0.5930850319454202 -0.848842443001283 -0.7618699765317349 13.638547401735488 2.9259139020243055 0.3088729375740608 0.1427391657087304 5.862882398449644 -0.3716832642765815 -14.77944853957041 0.4936533385744653 -5.300637088055791 1.9004393816372913 -15.084964062800292 71.7436132024486 20.025696914809203 -0.3816544188400614 2.2284289896401313 1.335430160663047 43.30736003574496 22.623707846923995 -0.18654179744473912 -4.286328964856816 4.555803233757039 -0.15417037268895778 -1.6316260631778583 0.03680728665621078 0.0023455597262154373 -56.21640061809057 0.018979441747065458 0.04506339150015867 -56.22929720630247 -38.75040400782637 -0.021718859901801734 -0.005136887033082322 -0.03098599862818616 0.04112659887021725 0.01006560383956811 0.022687221106864358 -0.03813043443981149 -0.002289180808748193 -36.67171445388318 0.026129048432484564 -0.024961581790877815 0.016208101263614487 0.049509708401427766 -0.046102765011642205 -0.020278802667838186 0.01348495290043276 -0.038944939774007 -19.73506714468891 0.035321798136535014 -0.020916731136927946 -0.04933844845698123 -0.04757944593933666 -0.02948815409836915 0.00017978828458003625 -0.013582792355320233 -0.017596798544101303 24.03725909785646 -0.04938820307803771 -0.006944576720504317 28.842998813615438 0.011128857068293044 0.008045687022336663 28.837943957461082 -0.04474258669223937 0.02228654516442387 7.331391179283776 1.5741145444655524 13.700044426183261 -71.561530475027 22.8767122604785 -7.66125988476378 0.2898249297515231 -12.544726248404313 -44.350027101315085 -7.258864042608481 0.3927633523026871 2.620402007445937 -0.5183167386212237 0.02915163922495615 -8.082491732637864 0.04617479603003031 -0.04983525330573221 44.61624246241152 0.03550947050903785 0.004092489546924989 44.61287810820813 12.48132641006064 -0.021718800025672235 -0.03468996801691299 -0.036340267551238085 0.0241914854576164 -0.024679383158741925 0.03200845208240247 -0.0219181909388091 -0.019813152276759276 11.11360595458387 -0.04840996615172046 -0.017574127827624006 -0.027367231419278746 0.01223194251625728 0.0005818244948622387 0.03720950861733541 0.026336174693984943 -0.014770403930347972 4.814767023081494 -0.005898113904458795 0.031714454236330146 -0.015135996280678165 -0.029762622723866195 -0.04531887791559241 0.00927526500485938 0.027399960476706228 -0.036531161918326296 -5.589751992997112 -0.03729517463223782 0.028323130044368813 -6.75334101429394 -0.008172929972589884 -0.0026070427854819203 -6.708307886656698 0.02893496623393162 -0.02094360897075045 0.0005568236252679294 0.025241941933689574 -0.03310702998849095 8.028667834914518 3.4874472572988817 -19.204985218786184 0.04225058930120008 10.408629694437401 0.036072877079197624 -5.61718625431161 -15.688990829744265 3.2023097119720907 0.00036002089945205696 -0.027399991833461878 -0.01694351501572498 -0.025836543664949918 4.669202043539269 -0.0018799261541631567 12.426876943210665 -8.271302866504412 6.8656796033908005 0.026600677980574063 46.36205954949336 0.015805630769006505 -4.332463519676857 -14.782104304690188 -3.8447626945558886 -0.019606979868553788 0.040014780095825 0.007319702256222829 -0.03031215117186224 -10.71672837729498 0.03606626109068045 
0.04581763751037432 0.049525332827139196 -0.04079819868829048 0.0014452894149512144 -0.014255908625988892 -0.0019273410374090003 -3.1511174433578106 0.6147731109092781 -0.6609369727203538 -1.1406961007844618 3.904771892986699 0.4118134491049363 -1.2579147191823885 -2.185690002138767 -1.4345224664492164 -0.5220957690340714 0.5761995915326661 -0.8609233392607555 -0.9701167045773244 13.961434814308067 3.410756848589948 0.2702385236991084 0.2590597842271097 7.048715477054286 -0.6115675283992108 -14.61246786228363 0.5470283178392008 -5.606731683271952 1.981064876076131 -14.938209223157635 70.64807059496829 20.117654441782516 0.035133317297838994 2.3902352297545617 0.7943304922320085 44.4389534381942 22.484738361821407 -0.21700393361800366 -4.333957593373368 4.518120612792229 -0.099250134130703 -1.6039345710441244 0.015530516839612353 -0.02950336475710256 -56.27507102520244 -0.020821259687934572 0.003302520890592869 -56.22298447462304 -38.81720271828556 -0.025612535858119536 0.0388497335827606 -0.03610937513238768 0.0028980611851559504 -0.007973508506064703 -0.006953920076088154 -0.019724352067685295 0.012330182778099217 -36.646447945686084 -0.002004200031310502 -0.004172611233045357 -0.0005313750240265084 -0.006166852774549352 -0.003680186301459661 0.013926984147912796 -0.025491677456786994 -0.03305915442304833 -19.761857380429774 -0.037487596211269014 -0.01855030029896748 0.031169034700276026 -0.014158980159602293 0.00045391738045146013 -0.046775677803793624 0.0057428463479384665 -0.005570860839084629 24.011853655245318 0.015064675823071293 0.02486295564798879 28.87876717474073 -0.037344441504682045 0.011938574464535948 28.84688350162393 0.049079871151672796 -0.004053596857815927 8.206056214141364 1.7217861554297758 13.726348026818727 -70.88191907329782 20.955629757697398 -10.277834239213366 0.6377010751069568 -13.249873126084188 -46.13170125773821 -6.1477959150331465 0.7765563422284429 2.394112141786147 -0.4571826359541129 0.11131098455810963 -8.118935638577568 -0.028044555585618056 0.025059110586686088 44.615587463567564 0.04759684616868367 -0.03522994346512734 44.566019128485316 12.446368412491067 -0.008539934448167861 0.010569858162414483 -0.007162685780502489 -0.03059915521965934 0.0006976208209509756 0.0011132865519789834 -0.0363273941831998 0.028740352867476206 11.078397984439576 0.04753238748028345 -0.000468035256255119 -0.03099888809250999 -0.02206158905130096 0.0457122549353537 0.004427022901537 -0.008332898116264162 0.04992106859392924 4.755030549546461 -0.004796916737698579 0.03586110289064219 0.015041561616897289 0.0038342736380406243 -0.021896566931832145 0.03281686486318479 -0.03751361437612315 -0.0287315705337415 -5.570288599558449 0.005380544839229915 0.03166077794926032 -6.758349379934511 -0.015031912758323699 -0.010244504871903787 -6.693338189660183 0.021665047192159885 0.002624900708492099 -0.014804768547222142 -0.010927484180399244 -0.014533490556586223 8.025477937286707 3.482703379011032 -19.206662608208337 -0.013860170259393973 10.405925601808402 0.03902373880008146 -5.595310668510981 -15.63309491821381 3.186999203936743 -0.011658336036279691 -0.006843440664015316 0.023601441409637408 0.0176487334971448 4.664258974553038 0.01800137422586891 12.47386091302557 -8.210237574644028 6.9145002730693825 0.046560152491428114 46.339893259883034 0.0063981269461565 -4.283362171379391 -14.795099575714612 -3.8041351583842147 -0.0299194826504419 -0.020520216724399746 -0.022958855336079165 0.017054718402161106 -10.785207444638683 0.03749598247701381 
